<?xml version="1.0" encoding="UTF-8" standalone="no"?>
<svg
   xmlns:dc="http://purl.org/dc/elements/1.1/"
   xmlns:cc="http://creativecommons.org/ns#"
   xmlns:rdf="http://www.w3.org/1999/02/22-rdf-syntax-ns#"
   xmlns:svg="http://www.w3.org/2000/svg"
   xmlns="http://www.w3.org/2000/svg"
   xmlns:sodipodi="http://sodipodi.sourceforge.net/DTD/sodipodi-0.dtd"
   xmlns:inkscape="http://www.inkscape.org/namespaces/inkscape"
   width="2500"
   height="2500"
   viewBox="0 0 192.756 192.756"
   version="1.1"
   id="svg6"
   sodipodi:docname="disney-logo.svg"
   inkscape:version="0.92.0 r15299"
   inkscape:export-filename="C:\Users\suitedoalex\sites\disney-logo-0.png"
   inkscape:export-xdpi="157.28641"
   inkscape:export-ydpi="157.28641">
  <metadata
     id="metadata12">
    <rdf:RDF>
      <cc:Work
         rdf:about="">
        <dc:format>image/svg+xml</dc:format>
        <dc:type
           rdf:resource="http://purl.org/dc/dcmitype/StillImage" />
        <dc:title></dc:title>
      </cc:Work>
    </rdf:RDF>
  </metadata>
  <defs
     id="defs10" />
  <sodipodi:namedview
     pagecolor="#ffffff"
     bordercolor="#666666"
     borderopacity="1"
     objecttolerance="10"
     gridtolerance="10"
     guidetolerance="10"
     inkscape:pageopacity="0"
     inkscape:pageshadow="2"
     inkscape:window-width="1920"
     inkscape:window-height="1017"
     id="namedview8"
     showgrid="false"
     inkscape:zoom="0.22565584"
     inkscape:cx="892.79605"
     inkscape:cy="1140.9842"
     inkscape:window-x="-8"
     inkscape:window-y="-8"
     inkscape:window-maximized="1"
     inkscape:current-layer="svg6" />
  <path
     d="m 96.832014,72.339843 a 4.5098233,4.5098233 0 0 1 2.742933,1.096855 c 1.042803,0.98717 1.316223,2.633247 0.822643,3.950268 -1.918703,3.949474 -6.48178,6.58749 -9.599868,7.460205 -1.865449,0.438742 -4.223688,0.438742 -5.924608,-0.219371 -0.823436,0.493585 -1.518111,2.088794 -2.523562,1.425912 -1.45532,-1.136597 -0.195526,-2.915409 -1.035653,-4.177588 -0.173272,-0.259907 -0.609629,-0.278982 -0.829,-0.704212 -1.152493,-2.523562 0.274213,-4.937438 1.864653,-6.856935 2.651528,-2.958329 10.258775,-6.254459 14.482462,-1.975134 z m -8.832068,1.974339 c -1.481549,0.274214 -3.154651,0.918815 -4.059159,1.975134 -0.905303,1.055525 -1.480754,2.08482 -0.932327,3.181675 1.920292,-1.425911 2.852618,-3.401046 4.992281,-4.607586 -7.95e-4,-0.220166 0.328262,-0.384694 -7.95e-4,-0.549223 z m 8.942549,0.549223 c -3.78574,-0.329852 -6.638358,2.523561 -9.326448,5.265699 -0.164529,0.438742 -1.151698,0.932327 -0.3839,1.425912 3.621212,0.329057 7.077101,-0.712161 9.710348,-3.126832 0.768593,-0.712956 1.315431,-1.645283 0.933122,-2.633247 -0.164529,-0.383105 -0.551607,-0.767004 -0.933122,-0.931532 z m 32.803125,16.347116 c 1.75576,4.279324 3.23652,11.025779 0,15.140579 -0.87749,0.98717 -2.41308,1.89723 -3.40025,1.15169 -3.62121,-2.90666 -5.15602,-7.0763 -7.40537,-10.807199 -0.32905,-0.164528 -0.32905,0.275009 -0.49358,0.439537 -0.82264,3.784942 0.71296,8.722382 -1.86465,11.683892 -0.98717,0.16453 -1.91076,-0.34337 -2.24935,-1.31623 -1.26218,-3.89463 0.0533,-7.954581 0.38231,-11.849211 0.76859,-1.975134 1.09765,-4.27853 2.79857,-5.760079 2.74293,1.096855 4.05916,4.169639 5.6488,6.418987 1.15329,1.700125 2.08482,3.620417 3.40105,5.156013 1.1517,-0.49358 0.58499,-1.998978 0.54922,-2.90746 -0.44033,-3.565574 -1.4275,-6.856935 -2.36062,-10.25798 -0.0533,-0.877484 -0.54684,-2.359034 0.3839,-2.907461 2.4719,1.09765 3.51232,3.675259 4.60997,5.814922 z M 113.17913,89.8935 c 0,0.823436 -0.65811,1.851936 -1.20813,1.975134 -5.2657,0.822641 -11.13546,0.329056 -16.072107,1.974339 -0.164528,0.60327 0.548427,0.712956 0.932327,0.877484 4.22289,0.658113 8.66754,0.822641 12.78234,1.865449 2.17543,0.552401 2.9631,3.127627 3.12762,5.266494 0.10095,1.68661 -0.54763,3.7301 -2.1945,4.88259 -4.05837,2.57841 -10.25719,2.46793 -14.372779,0.11049 -1.572953,-0.88226 -3.071989,-2.3034 -3.181674,-4.05916 0.0095,-1.39412 0.604065,-2.49177 1.591234,-3.01715 3.950269,-1.591235 8.832069,-0.712161 12.233909,1.31623 0.21778,1.09765 -0.96968,1.03803 -1.53798,1.4267 -3.78574,2.19451 -6.637565,-2.46713 -10.148296,-0.76859 -0.493585,0.32906 -0.85046,1.24708 -0.274214,1.53639 4.333373,1.92029 9.16113,0.54843 13.43966,-0.65811 0.49358,-0.16453 1.09765,-0.65812 1.15169,-1.1517 -0.16452,-1.755763 -2.13886,-2.138867 -3.40104,-2.632452 -3.7301,-0.932327 -7.844107,-0.932327 -11.849218,-1.316226 -0.767798,-0.164528 -1.746225,-0.699444 -1.974339,-1.316226 -0.438742,-1.316226 -0.438742,-3.126832 0.548428,-4.223687 5.101171,-4.498696 12.835589,-4.114002 19.308629,-2.907461 0.43953,0.161349 0.93312,0.325877 1.09844,0.819462 z m -23.971848,2.084819 c 0.493584,5.2657 0.767798,10.149091 0.658113,15.689001 -0.109686,0.71216 -0.932327,0.87748 -1.480755,1.1517 -0.877484,0.16453 -2.011696,-0.0223 -2.359033,-0.49359 -1.261384,-2.03077 -0.822642,-4.77211 -0.932327,-7.24083 0.164528,-3.893834 0.109685,-8.118316 1.207335,-11.739528 0.209834,-0.526172 0.822642,-0.98717 1.316227,-0.658908 1.316226,0.658908 1.535597,1.975929 1.59044,3.292155 z m 60.946998,-0.767798 c 0.26388,0.443511 0.53968,1.128648 0,1.425911 -2.46872,1.096855 -5.81413,0.603271 -8.66754,0.932327 -0.7678,0.658113 -1.37187,1.754968 -1.09845,2.742933 0.27581,0.164528 0.52141,0.414897 0.82423,0.383104 1.75418,0.110481 4.38822,-0.822641 5.54151,0.822642 0.28136,0.48961 -0.0382,2.317702 -0.82264,2.359033 -2.14046,0.275799 -5.65994,-0.26865 -6.694,0.275799 -1.31623,0.87749 -1.20734,2.57761 -1.70092,3.95027 0.93312,0.60327 1.90996,-0.0143 3.01635,-0.16532 2.03157,-0.32906 4.28092,-0.93233 6.3093,-0.49359 0.3839,0.71296 0.93312,1.48155 0.54843,2.35904 -3.45827,2.74293 -7.91882,5.55422 -12.67106,3.56557 -1.78358,-0.79959 -2.57841,-3.51073 -1.97434,-5.81333 0.3831,-1.64608 2.08323,-3.23652 1.04201,-4.992281 -0.16453,-0.768593 0.27501,-1.425911 0.93312,-1.59044 1.80981,0 1.42512,-2.249347 2.35824,-3.292155 -1.04201,-1.151698 -3.67446,-1.096855 -3.40025,-3.401045 1.26218,-0.658114 2.79857,-0.438742 4.22289,-0.658114 3.23652,-0.658907 6.85694,-1.042807 10.15068,-0.658907 0.65573,0.13194 1.53401,1.425911 2.08244,2.248553 z M 71.817358,78.703193 c 5.062225,4.137846 11.629844,11.191101 10.807203,19.309419 -0.987964,6.418988 -7.790056,11.245938 -13.550135,12.782338 -5.595551,1.64528 -12.617014,1.48075 -18.323045,0.16452 -0.383899,1.04281 -0.767799,2.3034 -1.974339,2.74294 -0.767799,0.27421 -1.755763,0.10968 -2.359034,-0.3839 -1.700125,-1.59124 -0.329056,-4.66323 -2.797775,-5.6496 -4.827753,-2.02998 -10.039404,-6.03509 -12.507328,-10.971729 -0.329057,-0.98717 0.05484,-1.974339 0.658113,-2.742138 3.78574,-3.017147 8.557854,-4.223687 13.330764,-5.156809 0.274214,0.109686 0.164528,-0.274214 0.383899,-0.383899 0.274214,-3.29136 0.3839,-6.638358 1.425912,-9.600662 0.237652,-0.415692 0.822641,-0.548428 1.207336,-0.274214 3.017146,2.303396 1.590439,6.638358 2.907461,9.764395 5.760079,0.274214 11.520158,0.548428 16.072902,3.78574 1.536392,1.261384 1.910753,3.670491 1.425911,5.047124 -0.484047,1.374248 -2.084024,2.359033 -3.565574,2.467129 -0.987964,0 -2.852618,0.09617 -2.742932,-0.657318 0.109685,-0.754287 3.35574,-1.988646 2.359033,-3.017942 -1.433065,-1.479164 -8.60316,-2.359033 -13.047013,-2.907461 -0.548427,-0.109685 -1.05155,0.05484 -1.05155,0.658114 -0.109685,4.168844 -0.438742,8.77643 0.274214,12.78234 0.05484,0.275 0.383899,0.60406 0.658908,0.65731 7.844104,1.26218 16.127745,0.54843 22.271723,-3.94947 2.852618,-2.3026 3.78574,-5.541502 3.29136,-9.106281 C 74.504654,84.134215 64.136988,78.15397 55.633976,74.314182 47.35113,70.693766 38.18921,68.828317 28.369972,69.322697 c -1.563416,0.114454 -4.040878,0.654139 -4.059159,1.207335 -0.01828,0.553197 2.806519,0.37913 2.467925,1.425912 -0.3378,1.045986 -3.208699,0.42523 -4.059159,0.164528 -0.85046,-0.260702 -0.767799,-1.481549 -0.548428,-2.249348 2.139662,-3.784945 8.110369,-4.090952 10.807202,-4.223687 14.92041,-0.384694 29.348824,5.297492 38.839005,13.055756 z M 44.937254,93.405026 c -3.78574,0.05484 -7.790056,0.438742 -11.300788,1.754968 -0.712955,0.274214 -1.591234,1.042012 -1.042807,1.975134 1.425912,1.919497 3.465427,3.495632 5.37618,4.607582 1.910754,1.11037 4.443853,2.52357 6.748044,2.85342 0.548427,-3.56637 0.548427,-7.077103 0.493585,-10.752362 -0.220166,-0.109686 -7.95e-4,-0.329057 -0.274214,-0.438742 z M 158.32664,88.412745 c -0.16452,4.772115 -4.60917,7.735213 -4.60917,12.507325 0.16453,0.16453 0.2758,0.3839 0.49358,0.27581 3.56717,-3.895429 7.0771,-9.436137 12.28875,-11.08142 1.37346,-0.109685 2.61418,1.083343 3.12763,1.975134 1.81061,3.620417 1.37345,8.722386 -1.1509,12.013746 -2.60464,3.23095 -7.13274,6.47303 -12.28716,5.92381 -2.13887,5.26649 -3.62281,10.8072 -4.44545,16.56728 -0.43874,1.1517 -1.47996,0.10968 -2.13807,-0.10969 -4.44306,-3.51073 -0.79482,-12.80459 -0.49358,-13.99046 0.30123,-1.1827 1.49029,-3.97253 2.35982,-6.30851 -2.08482,-3.72931 -0.76859,-8.228795 0.93154,-11.684684 1.31622,-2.304191 3.12842,-4.608381 5.26728,-6.363349 0.27183,7.94e-4 0.49121,0.05564 0.65573,0.275008 z m 8.83366,5.924608 c -0.65811,-0.109686 -0.93312,0.768593 -1.48075,0.933121 -2.52277,2.852619 -5.04713,5.705236 -6.3093,9.106286 1.70171,0.21937 3.12683,-0.87749 4.60917,-1.48076 2.52277,-1.59123 4.114,-4.22289 3.94947,-7.240832 -0.11048,-0.495174 -0.54922,-0.879073 -0.76859,-1.317815 z"
     id="path4"
     inkscape:connector-curvature="0"
     style="stroke-width:0.79482257" />
</svg>
